Coordinates
version=1
nRows=49
nColumns=12
inDegrees=yes

Units are S.I. units (second, meters, Newtons, ...)
Angles are in degrees

endheader
time	SC_y	SC_z	SC_x	AC_y	AC_z	AC_x	GH_y	GH_z	GH_yy	EL_x	PS_y
       0.0              -11.93          33.11           1.56          61.32          -16.2          0.474        -0.1835         -16.43         -46.44          47.37          154.1
   0.04175              -11.93          33.11          1.572          61.32          -16.2         0.4723        -0.1576         -16.42         -46.44          47.37          154.1
   0.08349              -11.94          33.11          1.585          61.31          -16.2         0.4704        -0.1301         -16.41         -46.44          47.38          154.1
    0.1252              -11.94          33.11          1.598          61.31          -16.2         0.4684        -0.1009         -16.41         -46.44          47.38          154.1
     0.167              -11.94          33.11          1.613          61.31          -16.2         0.4663       -0.06973          -16.4         -46.44          47.39          154.1
    0.2087              -11.94           33.1          1.628           61.3          -16.2          0.464       -0.03654         -16.39         -46.43          47.39          154.1
    0.2505              -11.95           33.1          1.645           61.3          -16.2         0.4616      -0.001104         -16.38         -46.43           47.4          154.1
    0.2922              -11.95           33.1          1.662          61.29          -16.2          0.459        0.03679         -16.37         -46.43           47.4          154.1
     0.334              -11.95           33.1          1.681          61.29          -16.2         0.4563        0.07736         -16.36         -46.43          47.41          154.1
    0.3757              -11.96           33.1          1.701          61.28          -16.2         0.4533         0.1209         -16.35         -46.43          47.41          154.1
    0.4175              -11.96           33.1          1.723          61.28          -16.2         0.4501         0.1676         -16.34         -46.43          47.42          154.1
    0.4592              -11.96           33.1          1.746          61.27          -16.2         0.4467         0.2179         -16.33         -46.43          47.42          154.1
     0.501              -11.97           33.1          1.772          61.26          -16.2          0.443         0.2722         -16.31         -46.43          47.43          154.1
    0.5427              -11.97           33.1          1.799          61.25          -16.2         0.4391         0.3308          -16.3         -46.43          47.44          154.1
    0.5845              -11.98           33.1          1.828          61.25          -16.2         0.4348         0.3942         -16.28         -46.43          47.45          154.0
    0.6262              -11.98          33.09           1.86          61.24          -16.2         0.4301         0.4629         -16.27         -46.43          47.46          154.0
     0.668              -11.99          33.09          1.895          61.23          -16.2          0.425         0.5376         -16.25         -46.43          47.47          154.0
    0.7097              -11.99          33.09          1.933          61.22         -16.19         0.4195          0.619         -16.23         -46.43          47.48          154.0
    0.7514               -12.0          33.09          1.974           61.2         -16.19         0.4134         0.7079          -16.2         -46.43          47.49          154.0
    0.7932              -12.01          33.09           2.02          61.19         -16.19         0.4068         0.8053         -16.18         -46.43           47.5          154.0
    0.8349              -12.01          33.09          2.069          61.18         -16.19         0.3996         0.9121         -16.15         -46.43          47.52          154.0
    0.8767              -12.02          33.08          2.124          61.16         -16.19         0.3916           1.03         -16.12         -46.43          47.53          154.0
    0.9184              -12.03          33.08          2.184          61.14         -16.19         0.3827           1.16         -16.09         -46.42          47.55          154.0
    0.9602              -12.04          33.08          2.251          61.13         -16.19          0.373          1.304         -16.06         -46.42          47.57          153.9
     1.002              -12.05          33.07          2.326           61.1         -16.18         0.3621          1.464         -16.02         -46.42          47.59          153.9
     1.044              -12.07          33.07          2.409          61.08         -16.18         0.3499          1.642         -15.97         -46.42          47.62          153.9
     1.085              -12.08          33.07          2.502          61.05         -16.18         0.3364          1.842         -15.92         -46.42          47.64          153.9
     1.127               -12.1          33.06          2.606          61.02         -16.18         0.3211          2.067         -15.86         -46.42          47.67          153.9
     1.169              -12.12          33.06          2.725          60.99         -16.17         0.3038          2.321          -15.8         -46.42          47.71          153.8
     1.211              -12.14          33.05          2.859          60.95         -16.17         0.2842           2.61         -15.73         -46.41          47.74          153.8
     1.252              -12.16          33.04          3.012          60.91         -16.17         0.2618          2.939         -15.65         -46.41          47.79          153.8
     1.294              -12.19          33.04          3.188          60.86         -16.16         0.2361          3.318         -15.55         -46.41          47.84          153.7
     1.336              -12.22          33.03          3.391           60.8         -16.16         0.2064          3.754         -15.44          -46.4           47.9          153.7
     1.378              -12.26          33.02          3.627          60.73         -16.15         0.1719          4.261         -15.32          -46.4          47.96          153.6
     1.419              -12.31           33.0          3.903          60.66         -16.14         0.1316          4.855         -15.17         -46.39          48.04          153.5
     1.461              -12.36          32.99          4.228          60.56         -16.14        0.08406          5.554         -14.99         -46.39          48.14          153.5
     1.503              -12.42          32.97          4.615          60.45         -16.13        0.02755          6.386         -14.79         -46.38          48.25          153.4
     1.545              -12.49          32.95          5.078          60.32         -16.11       -0.04018          7.382         -14.54         -46.37          48.38          153.3
     1.586              -12.58          32.93          5.639          60.16          -16.1        -0.1221          8.588         -14.24         -46.36          48.54          153.1
     1.628              -12.69           32.9          6.324          59.97         -16.08        -0.2222          10.06         -13.87         -46.35          48.74          153.0
      1.67              -12.83          32.86           7.17          59.73         -16.06        -0.3458          11.88         -13.42         -46.33          48.98          152.8
     1.712               -13.0          32.81          8.224          59.43         -16.03        -0.4998          14.15         -12.85         -46.32          49.28          152.5
     1.753              -13.21          32.75          9.552          59.05          -16.0        -0.6939           17.0         -12.14         -46.29          49.67          152.2
     1.795              -13.48          32.68          11.24          58.57         -15.95        -0.9406          20.63         -11.23         -46.26          50.15          151.8
     1.837              -13.82          32.58           13.4          57.96          -15.9         -1.256          25.28         -10.07         -46.22          50.77          151.3
     1.879              -14.26          32.46          16.17          57.17         -15.83         -1.662          31.24         -8.581         -46.17          51.57          150.6
      1.92              -14.83           32.3          19.72          56.16         -15.74         -2.179          38.86         -6.679         -46.11          52.59          149.7
     1.962              -15.54           32.1          24.17           54.9         -15.62          -2.83          48.43         -4.288         -46.03          53.86          148.7
     2.004               -16.4          31.86           29.6          53.36         -15.48         -3.623           60.1         -1.374         -45.93          55.42          147.4
